<svg width="87" height="72" viewBox="0 0 87 72" fill="none" xmlns="http://www.w3.org/2000/svg">
<path d="M32.625 9.375C32.625 8.34 33.64 7.5 34.8906 7.5H52.1094C52.7103 7.5 53.2865 7.69754 53.7114 8.04917C54.1363 8.40081 54.375 8.87772 54.375 9.375C54.375 9.87228 54.1363 10.3492 53.7114 10.7008C53.2865 11.0525 52.7103 11.25 52.1094 11.25H34.8906C33.64 11.25 32.625 10.41 32.625 9.375ZM41.2344 40.125C41.2344 40.6223 41.4731 41.0992 41.898 41.4508C42.3228 41.8025 42.8991 42 43.5 42C44.1009 42 44.6772 41.8025 45.102 41.4508C45.5269 41.0992 45.7656 40.6223 45.7656 40.125V25.875C45.7656 25.3777 45.5269 24.9008 45.102 24.5492C44.6772 24.1975 44.1009 24 43.5 24C42.8991 24 42.3228 24.1975 41.898 24.5492C41.4731 24.9008 41.2344 25.3777 41.2344 25.875V40.125ZM43.5 15C26.4824 15 12.6875 26.4165 12.6875 40.5C12.6875 54.5835 26.4824 66 43.5 66C60.5176 66 74.3125 54.5835 74.3125 40.5C74.3125 26.4165 60.5176 15 43.5 15ZM17.2188 40.5C17.2188 28.488 28.9855 18.75 43.5 18.75C58.0145 18.75 69.7813 28.488 69.7813 40.5C69.7813 52.512 58.0145 62.25 43.5 62.25C28.9855 62.25 17.2188 52.512 17.2188 40.5ZM69.1197 15.5475C68.6947 15.1958 68.1184 14.9983 67.5174 14.9983C66.9165 14.9983 66.3401 15.1958 65.9152 15.5475C65.4902 15.8992 65.2515 16.3762 65.2515 16.8735C65.2515 17.3708 65.4902 17.8478 65.9152 18.1995L70.4464 21.9495C70.6569 22.1236 70.9066 22.2618 71.1816 22.356C71.4565 22.4502 71.7511 22.4987 72.0487 22.4987C72.3463 22.4987 72.6409 22.4502 72.9158 22.356C73.1907 22.2618 73.4405 22.1236 73.6509 21.9495C73.8613 21.7754 74.0283 21.5686 74.1421 21.3411C74.256 21.1136 74.3146 20.8698 74.3146 20.6235C74.3146 20.3772 74.256 20.1334 74.1421 19.9059C74.0283 19.6784 73.8613 19.4716 73.6509 19.2975L69.1197 15.5475Z" fill="white"/>
</svg>
